<svg width="671" height="220" viewBox="0 0 671 220" fill="none" xmlns="http://www.w3.org/2000/svg">
<path d="M56.26 174L0.82 48H20.26L71.2 164.28H60.04L111.34 48H129.34L74.08 174H56.26ZM142.796 174V78.6H159.356V104.52L157.736 98.04C160.376 91.44 164.816 86.4 171.056 82.92C177.296 79.44 184.976 77.7 194.096 77.7V94.44C193.376 94.32 192.656 94.26 191.936 94.26C191.336 94.26 190.736 94.26 190.136 94.26C180.896 94.26 173.576 97.02 168.176 102.54C162.776 108.06 160.076 116.04 160.076 126.48V174H142.796ZM547.324 77.7C555.004 77.7 561.784 79.2 567.664 82.2C573.544 85.2 578.104 89.76 581.344 95.88C584.704 102 586.384 109.74 586.384 119.1V174H569.104V121.08C569.104 111.84 566.944 104.88 562.624 100.2C558.304 95.52 552.244 93.18 544.444 93.18C538.684 93.18 533.644 94.38 529.324 96.78C525.004 99.18 521.644 102.72 519.244 107.4C516.964 112.08 515.824 117.9 515.824 124.86V174H498.544V121.08C498.544 111.84 496.384 104.88 492.064 100.2C487.864 95.52 481.804 93.18 473.884 93.18C468.244 93.18 463.264 94.38 458.944 96.78C454.624 99.18 451.264 102.72 448.864 107.4C446.464 112.08 445.264 117.9 445.264 124.86V174H427.984V78.6H444.544V103.98L441.844 97.5C444.844 91.26 449.464 86.4 455.704 82.92C461.944 79.44 469.204 77.7 477.484 77.7C486.604 77.7 494.464 79.98 501.064 84.54C507.664 88.98 511.984 95.76 514.024 104.88L507.004 102C509.884 94.68 514.924 88.8 522.124 84.36C529.324 79.92 537.724 77.7 547.324 77.7ZM621.779 174V78.6H639.059V174H621.779ZM630.419 60.24C627.059 60.24 624.239 59.16 621.959 57C619.799 54.84 618.719 52.2 618.719 49.08C618.719 45.84 619.799 43.14 621.959 40.98C624.239 38.82 627.059 37.74 630.419 37.74C633.779 37.74 636.539 38.82 638.699 40.98C640.979 43.02 642.119 45.6 642.119 48.72C642.119 51.96 641.039 54.72 638.879 57C636.719 59.16 633.899 60.24 630.419 60.24Z" fill="white"/>
<path d="M364.422 76.347C354.737 76.347 345.269 79.2192 337.216 84.6004C329.163 89.9816 322.887 97.6301 319.18 106.579C315.474 115.527 314.504 125.374 316.394 134.874C318.283 144.373 322.947 153.1 329.796 159.948C336.644 166.797 345.37 171.462 354.869 173.351C364.368 175.241 374.214 174.271 383.162 170.564C392.11 166.858 399.758 160.581 405.138 152.527C410.519 144.474 413.391 135.005 413.391 125.32C413.378 112.335 408.214 99.8871 399.033 90.7059C389.853 81.5247 377.405 76.3607 364.422 76.347ZM364.422 147.922C359.952 147.922 355.582 146.597 351.865 144.113C348.149 141.629 345.252 138.099 343.541 133.969C341.831 129.839 341.383 125.295 342.255 120.91C343.127 116.526 345.28 112.498 348.441 109.337C351.601 106.176 355.629 104.023 360.013 103.151C364.397 102.279 368.941 102.727 373.071 104.437C377.201 106.148 380.731 109.045 383.214 112.762C385.698 116.479 387.023 120.849 387.023 125.32C387.017 131.312 384.634 137.058 380.397 141.295C376.159 145.533 370.414 147.916 364.422 147.922ZM382.884 101.526C378.627 98.1977 373.55 96.0826 368.189 95.404V84.0555C376.548 84.8086 384.479 88.0941 390.922 93.4733L382.884 101.526ZM360.655 95.4275C355.294 96.1061 350.217 98.2212 345.96 101.549L337.922 93.4874C344.365 88.1082 352.296 84.8227 360.655 84.0696V95.4275ZM340.63 106.856C337.302 111.114 335.187 116.191 334.508 121.553H323.161C323.914 113.193 327.199 105.261 332.578 98.8179L340.63 106.856ZM334.532 129.087C335.21 134.448 337.325 139.526 340.653 143.783L332.592 151.821C327.213 145.378 323.928 137.447 323.175 129.087H334.532ZM345.96 149.114C350.219 152.433 355.297 154.54 360.655 155.212V166.584C352.296 165.831 344.365 162.545 337.922 157.166L345.96 149.114ZM368.189 155.212C373.547 154.54 378.625 152.433 382.884 149.114L390.922 157.152C384.479 162.531 376.548 165.817 368.189 166.57V155.212ZM388.215 143.783C391.534 139.523 393.64 134.445 394.312 129.087H405.683C404.93 137.447 401.645 145.378 396.266 151.821L388.215 143.783ZM394.312 121.553C393.64 116.194 391.534 111.116 388.215 106.856L396.252 98.8179C401.631 105.261 404.916 113.193 405.669 121.553H394.312Z" fill="white"/>
<path d="M249.909 76.347C240.224 76.347 230.756 79.2192 222.703 84.6004C214.65 89.9816 208.374 97.6301 204.668 106.579C200.961 115.527 199.991 125.374 201.881 134.874C203.77 144.373 208.434 153.1 215.283 159.948C222.131 166.797 230.857 171.462 240.356 173.351C249.855 175.241 259.701 174.271 268.649 170.564C277.597 166.858 285.245 160.581 290.626 152.527C296.007 144.474 298.879 135.005 298.879 125.32C298.865 112.335 293.701 99.8871 284.521 90.7059C275.34 81.5247 262.893 76.3607 249.909 76.347ZM249.909 147.922C245.439 147.922 241.07 146.597 237.353 144.113C233.636 141.629 230.739 138.099 229.029 133.969C227.318 129.839 226.87 125.295 227.742 120.91C228.614 116.526 230.767 112.498 233.928 109.337C237.089 106.176 241.116 104.023 245.5 103.151C249.884 102.279 254.429 102.727 258.558 104.437C262.688 106.148 266.218 109.045 268.702 112.762C271.185 116.479 272.511 120.849 272.511 125.32C272.504 131.312 270.121 137.058 265.884 141.295C261.647 145.533 255.902 147.916 249.909 147.922ZM268.372 101.526C264.114 98.1977 259.037 96.0826 253.676 95.404V84.0555C262.035 84.8086 269.966 88.0941 276.409 93.4733L268.372 101.526ZM246.142 95.4275C240.782 96.1061 235.704 98.2212 231.447 101.549L223.409 93.4874C229.852 88.1082 237.783 84.8227 246.142 84.0696V95.4275ZM226.117 106.856C222.789 111.114 220.674 116.191 219.996 121.553H208.648C209.401 113.193 212.686 105.261 218.065 98.8179L226.117 106.856ZM220.019 129.087C220.698 134.448 222.813 139.526 226.14 143.783L218.079 151.821C212.7 145.378 209.415 137.447 208.662 129.087H220.019ZM231.447 149.114C235.707 152.433 240.784 154.54 246.142 155.212V166.584C237.783 165.831 229.852 162.545 223.409 157.166L231.447 149.114ZM253.676 155.212C259.035 154.54 264.112 152.433 268.372 149.114L276.409 157.152C269.966 162.531 262.035 165.817 253.676 166.57V155.212ZM273.702 143.783C277.021 139.523 279.128 134.445 279.799 129.087H291.171C290.418 137.447 287.132 145.378 281.753 151.821L273.702 143.783ZM279.799 121.553C279.128 116.194 277.021 111.116 273.702 106.856L281.739 98.8179C287.118 105.261 290.403 113.193 291.157 121.553H279.799Z" fill="white"/>
</svg>
