<?xml version="1.0" encoding="utf-8"?>
<svg viewBox="0 0 920 240" xmlns="http://www.w3.org/2000/svg">
  <path d="M 35.212 79.391 Q 47.404 79.391 54.897 81.931 Q 62.39 84.471 65.883 91.266 Q 69.375 98.06 69.375 110.887 L 69.375 141.875 L 50.96 141.875 L 50.325 136.033 L 49.944 136.033 Q 47.531 139.208 42.451 141.113 Q 37.371 143.018 29.243 143.018 Q 7.272 143.018 7.272 122.444 Q 7.272 113.681 13.051 108.665 Q 18.829 103.648 31.275 103.648 L 50.071 103.648 Q 49.182 98.314 45.499 96.473 Q 41.816 94.631 32.926 94.631 Q 27.338 94.631 21.941 95.457 Q 16.543 96.282 12.479 97.298 L 12.098 97.044 L 12.225 82.312 Q 14.765 81.55 18.702 80.852 Q 22.639 80.153 27.021 79.772 Q 31.402 79.391 35.212 79.391 Z M 34.45 128.032 Q 42.324 128.032 46.261 126.064 Q 50.198 124.095 50.325 119.777 L 50.325 116.602 L 35.974 116.602 Q 30.386 116.602 28.164 118.19 Q 25.941 119.777 25.941 122.444 Q 25.941 125.619 28.227 126.826 Q 30.513 128.032 34.45 128.032 Z" style="fill: rgb(234, 51, 84); white-space: pre;"/>
  <path d="M 103.021 143.018 Q 91.337 143.018 86.384 136.795 Q 81.431 130.572 81.431 119.015 L 81.431 80.026 L 101.751 80.026 L 101.878 114.062 Q 101.878 119.777 103.91 122.127 Q 105.942 124.476 112.165 124.476 Q 118.134 124.476 120.23 122.381 Q 122.325 120.285 122.452 115.205 L 122.452 80.026 L 142.772 80.026 L 142.772 141.875 L 123.468 141.875 L 122.452 134.89 L 122.071 134.89 Q 120.42 138.573 115.34 140.796 Q 110.26 143.018 103.021 143.018 Z" style="fill: rgb(234, 51, 84); white-space: pre;"/>
  <path d="M 159.284 123.333 L 159.284 96.663 L 151.664 96.663 L 151.664 80.153 L 161.189 80.153 L 164.999 65.04 L 179.604 65.04 L 179.604 80.153 L 193.447 80.153 L 193.447 96.663 L 179.604 96.663 L 179.604 118.888 Q 179.604 122.444 180.493 123.778 Q 181.382 125.111 184.557 125.111 Q 186.589 125.111 188.875 124.921 Q 191.161 124.73 193.447 124.476 L 193.828 124.73 L 193.828 141.24 Q 187.732 143.018 177.699 143.018 Q 167.666 143.018 163.475 138.446 Q 159.284 133.874 159.284 123.333 Z" style="fill: rgb(234, 51, 84); white-space: pre;"/>
  <path d="M 200.819 111.395 Q 200.819 94.377 208.058 86.884 Q 215.297 79.391 232.569 79.391 Q 244.126 79.391 251.111 82.693 Q 258.096 85.995 261.207 93.044 Q 264.319 100.092 264.319 111.395 Q 264.319 122.571 261.207 129.556 Q 258.096 136.541 251.111 139.78 Q 244.126 143.018 232.569 143.018 Q 215.297 143.018 208.058 135.589 Q 200.819 128.159 200.819 111.395 Z M 232.569 125.619 Q 239.935 125.619 242.538 122.381 Q 245.142 119.142 245.142 111.014 Q 245.142 103.267 242.538 99.902 Q 239.935 96.536 232.569 96.536 Q 225.457 96.536 222.726 99.902 Q 219.996 103.267 219.996 111.014 Q 219.996 119.142 222.726 122.381 Q 225.457 125.619 232.569 125.619 Z" style="fill: rgb(234, 51, 84); white-space: pre;"/>
  <path d="M 333.69 188.214 L 301.69 188.214 L 302.041 85.139 L 282.259 61.786 L 362.09 61.614 C 377.957 61.614 389.523 65.181 396.79 72.314 C 404.057 79.447 407.69 89.947 407.69 103.814 C 407.69 114.214 405.09 123.114 399.89 130.514 C 394.69 137.914 387.823 142.547 379.29 144.414 L 379.09 145.014 C 382.423 147.147 386.09 150.681 390.09 155.614 C 394.09 160.547 398.057 165.914 401.99 171.714 C 405.923 177.514 409.423 182.947 412.49 188.014 L 412.49 188.214 L 375.29 188.214 L 353.69 156.214 C 351.823 153.414 350.323 151.414 349.19 150.214 C 348.057 149.014 346.723 148.281 345.19 148.014 C 343.657 147.747 341.223 147.614 337.89 147.614 L 333.69 147.614 L 333.69 188.214 Z M 356.89 87.614 L 333.69 87.614 L 333.69 121.614 L 356.89 121.614 C 363.557 121.614 368.19 120.281 370.79 117.614 C 373.39 114.947 374.69 110.614 374.69 104.614 C 374.69 98.614 373.39 94.281 370.79 91.614 C 368.19 88.947 363.557 87.614 356.89 87.614 Z" style="white-space: pre; fill: rgb(55, 55, 55);"/>
  <path d="M 516.49 185.014 Q 510.89 187.014 500.99 188.514 Q 491.09 190.014 477.49 190.014 Q 460.29 190.014 448.19 185.514 Q 436.09 181.014 429.89 170.114 Q 423.69 159.214 423.69 139.814 Q 423.69 113.414 435.79 101.614 Q 447.89 89.814 473.29 89.814 Q 491.49 89.814 501.99 95.014 Q 512.49 100.214 516.99 109.714 Q 521.49 119.214 521.49 132.214 Q 521.49 136.014 521.19 140.414 Q 520.89 144.814 520.09 149.014 L 519.29 149.814 L 453.49 149.814 Q 454.89 158.614 461.79 161.414 Q 468.69 164.214 484.29 164.214 Q 494.69 164.214 501.59 163.714 Q 508.49 163.214 515.69 162.214 L 516.49 162.814 Z M 493.69 128.814 Q 493.69 124.014 492.19 120.514 Q 490.69 117.014 486.29 115.114 Q 481.89 113.214 473.29 113.214 Q 460.69 113.214 456.79 117.514 Q 452.89 121.814 452.89 128.814 Z" style="white-space: pre; fill: rgb(55, 55, 55);"/>
  <path d="M 570.487 188.214 L 538.487 188.214 L 538.487 90.814 L 568.887 90.814 L 570.487 108.614 L 571.087 108.614 Q 573.887 99.614 581.087 94.714 Q 588.287 89.814 601.087 89.814 Q 618.487 89.814 626.787 99.614 Q 635.087 109.414 635.087 133.614 L 635.087 188.214 L 603.087 188.214 L 602.887 139.814 Q 602.887 128.614 599.487 123.814 Q 596.087 119.014 586.687 119.014 Q 577.887 119.014 574.287 123.314 Q 570.687 127.614 570.487 138.014 Z" style="white-space: pre; fill: rgb(55, 55, 55);"/>
  <path d="M 659.081 159.014 L 659.081 117.014 L 647.081 117.014 L 647.081 91.014 L 662.081 91.014 L 668.081 67.214 L 691.081 67.214 L 691.081 91.014 L 712.881 91.014 L 712.881 117.014 L 691.081 117.014 L 691.081 152.014 Q 691.081 157.614 692.481 159.714 Q 693.881 161.814 698.881 161.814 Q 702.081 161.814 705.681 161.514 Q 709.281 161.214 712.881 160.814 L 713.481 161.214 L 713.481 187.214 Q 703.881 190.014 688.081 190.014 Q 672.281 190.014 665.681 182.814 Q 659.081 175.614 659.081 159.014 Z" style="white-space: pre; fill: rgb(55, 55, 55);"/>
  <path d="M 817.287 185.014 Q 811.687 187.014 801.787 188.514 Q 791.887 190.014 778.287 190.014 Q 761.087 190.014 748.987 185.514 Q 736.887 181.014 730.687 170.114 Q 724.487 159.214 724.487 139.814 Q 724.487 113.414 736.587 101.614 Q 748.687 89.814 774.087 89.814 Q 792.287 89.814 802.787 95.014 Q 813.287 100.214 817.787 109.714 Q 822.287 119.214 822.287 132.214 Q 822.287 136.014 821.987 140.414 Q 821.687 144.814 820.887 149.014 L 820.087 149.814 L 754.287 149.814 Q 755.687 158.614 762.587 161.414 Q 769.487 164.214 785.087 164.214 Q 795.487 164.214 802.387 163.714 Q 809.287 163.214 816.487 162.214 L 817.287 162.814 Z M 794.487 128.814 Q 794.487 124.014 792.987 120.514 Q 791.487 117.014 787.087 115.114 Q 782.687 113.214 774.087 113.214 Q 761.487 113.214 757.587 117.514 Q 753.687 121.814 753.687 128.814 Z" style="white-space: pre; fill: rgb(55, 55, 55);"/>
  <path d="M 871.284 188.214 L 839.284 188.214 L 839.284 90.814 L 865.284 90.814 L 867.884 110.814 L 868.484 110.814 Q 870.284 99.614 877.084 94.714 Q 883.884 89.814 897.284 89.814 Q 902.684 89.814 907.084 90.314 Q 911.484 90.814 914.484 91.214 L 914.484 122.414 L 914.084 122.814 Q 910.884 122.014 906.784 121.414 Q 902.684 120.814 897.484 120.814 Q 890.084 120.814 884.184 123.214 Q 878.284 125.614 874.984 132.514 Q 871.684 139.414 871.684 153.014 L 871.684 153.014 Z" style="white-space: pre; fill: rgb(55, 55, 55);"/>
</svg>